<?xml version="1.0" encoding="UTF-8"?>
<svg version="1.1" xmlns="http://www.w3.org/2000/svg" width="31" height="29">
<path d="M0 0 C10.23 0 20.46 0 31 0 C31 9.57 31 19.14 31 29 C20.77 29 10.54 29 0 29 C0 19.43 0 9.86 0 0 Z " fill="#425C59" transform="translate(0,0)"/>
<path d="M0 0 C1.546875 0.433125 1.546875 0.433125 3.125 0.875 C4.69800962 6.60803505 5.36827778 11.03159442 4.125 16.875 C-0.165 16.875 -4.455 16.875 -8.875 16.875 C-11.24687586 9.61985032 -11.24687586 9.61985032 -9.875 5.875 C-7.09067152 1.71719405 -5.11585071 -0.16502744 0 0 Z " fill="#9A8540" transform="translate(18.875,6.125)"/>
<path d="M0 0 C1.37562854 1.28965176 2.70766393 2.62689293 4 4 C4 4.66 4 5.32 4 6 C4.33 6.66 4.66 7.32 5 8 C5.04022391 10.3329866 5.04320247 12.66706666 5 15 C4.34 15 3.68 15 3 15 C3 13.35 3 11.7 3 10 C2.01 10.495 2.01 10.495 1 11 C1 12.32 1 13.64 1 15 C-0.98 15 -2.96 15 -5 15 C-5 12.36 -5 9.72 -5 7 C-4.0409375 6.6596875 -4.0409375 6.6596875 -3.0625 6.3125 C-0.72806339 5.14749104 -0.72806339 5.14749104 -0.25 2.375 C-0.1675 1.59125 -0.085 0.8075 0 0 Z " fill="#495F57" transform="translate(16,7)"/>
<path d="M0 0 C1.32 1.32 2.64 2.64 4 4 C2.625 6.5 2.625 6.5 1 9 C0.34 9 -0.32 9 -1 9 C-1.09765625 2.84765625 -1.09765625 2.84765625 -1 1 C-0.67 0.67 -0.34 0.34 0 0 Z " fill="#73734B" transform="translate(16,7)"/>
<path d="M0 0 C0.66 0 1.32 0 2 0 C3.4783226 2.95664519 3.06032783 5.74229737 3 9 C2.34 9 1.68 9 1 9 C0.67 6.03 0.34 3.06 0 0 Z " fill="#445D58" transform="translate(18,13)"/>
<path d="M0 0 C1.32 0.33 2.64 0.66 4 1 C4 2.32 4 3.64 4 5 C2.02 5 0.04 5 -2 5 C-1.34 4.67 -0.68 4.34 0 4 C0 2.68 0 1.36 0 0 Z " fill="#6C6F4D" transform="translate(13,17)"/>
</svg>
